# xmcd CD database file
#
# Track frame offsets:
#	225
#	11221
#	23146
#	33162
#	44426
#	59218
#	69779
#	86243
#	100329
#	109216
#	122773
#	137524
#	151028
#	165741
#	177722
#
# Disc length: 2734 seconds
#
# Revision: 0
# Processed by: cddbd v1.4PL0 Copyright (c) Steve Scherf et al.
# Submitted via: CDex 1.50
#
DISCID=cd0aab0f
DTITLE=Mike Sanchez - Blue Boy
DYEAR=1900
DGENRE=Blues
TTITLE0=Someday
TTITLE1=Hurtin' inside
TTITLE2=Tell me who
TTITLE3=Blue boy
TTITLE4=Come back baby
TTITLE5=Sapphire
TTITLE6=Fast train
TTITLE7=Strange love
TTITLE8=Shame, shame, shame
TTITLE9=Everyday, everynight
TTITLE10=Love me baby
TTITLE11=I wanna do more
TTITLE12=Wildcat tamer
TTITLE13=Well baby
TTITLE14=I miss you so
EXTD=
EXTT0=
EXTT1=
EXTT2=
EXTT3=
EXTT4=
EXTT5=
EXTT6=
EXTT7=
EXTT8=
EXTT9=
EXTT10=
EXTT11=
EXTT12=
EXTT13=
EXTT14=
PLAYORDER=
